HIERARCHY
ROOT Hips
{
	OFFSET -69.278358 106.759491 -5.755437
	CHANNELS 6 Xposition Yposition Zposition Xrotation Yrotation Zrotation
	JOINT Chest
	{
		OFFSET 1.042465 13.603867 0.047939
		CHANNELS 3 Xrotation Yrotation Zrotation
		JOINT Chest2
		{
			OFFSET 3.041466 21.151505 1.558745
			CHANNELS 3 Xrotation Yrotation Zrotation
			JOINT Chest3
			{
				OFFSET 0.078392 14.780762 2.083929
				CHANNELS 3 Xrotation Yrotation Zrotation
				JOINT Neck
				{
					OFFSET -0.463951 17.229431 1.244048
					CHANNELS 3 Xrotation Yrotation Zrotation
					JOINT Head
					{
						OFFSET 0.763756 10.449265 -0.239522
						CHANNELS 3 Xrotation Yrotation Zrotation
						End Site
						{
							OFFSET 0.701447 10.454422 -0.201739
						}
					}
				}
				JOINT LeftCollar
				{
					OFFSET -0.418770 13.584656 -4.133536
					CHANNELS 3 Xrotation Yrotation Zrotation
					JOINT LeftUpArm
					{
						OFFSET -15.676941 -0.721268 -7.887516
						CHANNELS 3 Xrotation Yrotation Zrotation
						JOINT LeftLowArm
						{
							OFFSET -10.822777 -4.828003 -31.611496
							CHANNELS 3 Xrotation Yrotation Zrotation
							JOINT LeftHand
							{
								OFFSET -10.415833 9.779053 -26.397499
								CHANNELS 3 Xrotation Yrotation Zrotation
								End Site
								{
									OFFSET -2.276466 2.137222 -5.769333
								}
							}
						}
					}
				}
				JOINT RightCollar
				{
					OFFSET 4.422268 13.218735 2.741750
					CHANNELS 3 Xrotation Yrotation Zrotation
					JOINT RightUpArm
					{
						OFFSET 0.746468 -2.032593 17.430086
						CHANNELS 3 Xrotation Yrotation Zrotation
						JOINT RightLowArm
						{
							OFFSET 23.119308 -6.972153 23.592840
							CHANNELS 3 Xrotation Yrotation Zrotation
							JOINT RightHand
							{
								OFFSET 17.727285 4.036804 23.883102
								CHANNELS 3 Xrotation Yrotation Zrotation
								End Site
								{
									OFFSET 3.874467 0.882294 5.219894
								}
							}
						}
					}
				}
			}
		}
	}
	JOINT LeftUpLeg
	{
		OFFSET -5.313278 0.436852 -8.485128
		CHANNELS 3 Xrotation Yrotation Zrotation
		JOINT LeftLowLeg
		{
			OFFSET 5.179955 -45.024422 -13.782551
			CHANNELS 3 Xrotation Yrotation Zrotation
			JOINT LeftFoot
			{
				OFFSET -9.754250 -43.569984 2.660597
				CHANNELS 3 Xrotation Yrotation Zrotation
				JOINT LeftToe
				{
					OFFSET 13.735489 -14.287601 -12.913584
					CHANNELS 3 Xrotation Yrotation Zrotation
					End Site
					{
						OFFSET 17.720131 0.908356 -15.643875
					}
				}
			}
		}
	}
	JOINT RightUpLeg
	{
		OFFSET 5.313267 -0.437050 8.485131
		CHANNELS 3 Xrotation Yrotation Zrotation
		JOINT RightLowLeg
		{
			OFFSET 8.853397 -46.512085 -1.501201
			CHANNELS 3 Xrotation Yrotation Zrotation
			JOINT RightFoot
			{
				OFFSET -23.952950 -35.362907 13.277805
				CHANNELS 3 Xrotation Yrotation Zrotation
				JOINT RightToe
				{
					OFFSET 5.088806 -22.844776 -3.431726
					CHANNELS 3 Xrotation Yrotation Zrotation
					End Site
					{
						OFFSET 17.615070 -13.873156 -7.536644
					}
				}
			}
		}
	}
}
MOTION
Frames: 5
Frame Time: 0.033333
13.661125 97.180840 6.917771 11.258014 -138.175519 9.404487 -10.049226 1.601592 -8.718120 6.310586 -5.609242 -6.011398 3.639831 8.976043 -4.067796 10.700969 -17.396753 -11.885765 0.000001 -0.000001 0.000001 16.280497 -13.334790 -19.910975 29.799303 -15.730547 -17.047093 81.253119 -72.947103 24.593090 0.000002 -0.000002 0.000000 12.074724 16.719034 -15.164169 3.680996 4.236861 -4.396142 182.800833 157.606397 -186.589129 -0.000006 0.000003 0.000005 24.304940 0.211410 -2.765869 -11.572336 0.438974 -12.059687 1.616022 20.309257 -14.793747 0.000001 -0.000003 -0.000002 1.082003 0.365227 1.076845 20.505358 -4.369383 9.833664 -16.433181 -22.371822 20.254460 -0.000000 -0.000001 0.000007 
14.140823 97.800247 7.013265 10.341569 -138.914231 8.515379 -9.946661 1.528098 -8.144099 6.691331 -5.917619 -6.168770 3.010115 8.668429 -4.165093 10.331332 -17.182473 -12.157943 0.000001 -0.000001 0.000001 16.258190 -13.903209 -20.220369 28.919308 -16.209342 -16.714359 76.377381 -77.682310 27.329868 0.000000 -0.000000 -0.000000 12.044623 16.261656 -15.198453 3.474608 3.444920 -4.730591 182.997065 156.348098 -187.104344 0.000003 -0.000002 0.000004 23.224482 0.178871 -6.084965 -8.357441 -0.254497 -9.285868 -0.461570 19.764802 -15.886648 -0.000001 -0.000003 0.000004 0.284566 0.310866 1.235857 19.715239 -3.749620 11.019958 -15.714288 -20.839454 18.570601 -0.000001 -0.000005 0.000012 
14.741005 98.476402 7.119416 10.934625 -139.285780 7.735765 -8.362326 1.106810 -6.454691 6.265295 -5.914784 -6.848620 2.885119 8.425455 -4.076257 10.660034 -17.636390 -12.322839 -0.000000 -0.000001 0.000002 16.499367 -14.879108 -20.829452 27.877665 -16.543268 -15.976277 73.616168 -82.072052 31.271546 0.000001 -0.000000 -0.000001 11.940698 15.629081 -14.908548 3.299202 1.925283 -5.020852 183.769586 155.535920 -187.860173 -0.000005 0.000002 0.000003 22.345071 0.207545 -8.842596 -4.928076 -0.659754 -6.244871 -3.467505 18.188015 -16.805759 -0.000003 -0.000005 -0.000002 -0.493017 0.237563 1.841736 19.810175 -3.399055 13.078175 -15.455205 -18.906435 15.528686 -0.000001 -0.000002 0.000007 
15.473068 99.191261 7.239933 11.498027 -139.211290 7.421415 -6.890850 0.785618 -5.384345 6.215051 -6.113045 -7.442151 2.698663 8.183386 -3.906682 11.394613 -18.122392 -12.129426 0.000002 -0.000005 -0.000002 16.617686 -15.915650 -21.459787 26.886990 -16.763789 -15.358107 62.639378 -85.787415 26.731228 0.000001 0.000001 -0.000002 12.332100 14.353100 -14.659579 2.582515 0.852693 -4.733051 184.937030 154.897557 -189.056071 -0.000003 -0.000003 0.000002 21.586731 0.333426 -10.893391 -1.717924 -0.850648 -3.272596 -6.305947 15.771400 -16.880580 0.000001 -0.000003 0.000003 -1.219860 0.137564 2.308843 19.415738 -2.986310 14.902768 -14.387179 -16.530405 12.936001 -0.000001 -0.000002 0.000001 
16.244926 99.881721 7.360965 11.648878 -138.548461 7.340076 -5.516538 0.557088 -4.502766 6.479875 -6.389044 -7.772891 2.277926 6.984884 -3.731941 11.821914 -18.615090 -12.242645 0.000000 -0.000005 -0.000005 16.747427 -16.126850 -21.290789 26.115925 -17.481427 -14.243151 97.736196 -89.511822 66.875728 0.000002 -0.000003 0.000003 12.502458 15.039926 -14.850030 2.395293 -0.856129 -4.519381 186.050487 154.823969 -189.858386 0.000000 -0.000003 0.000003 20.797516 0.461644 -11.962252 0.730968 -0.959164 -1.181969 -8.551761 13.718797 -16.900717 0.000001 -0.000003 -0.000002 -2.412967 -0.020941 2.205942 19.339185 -2.604835 16.292924 -13.949608 -15.110226 10.634923 -0.000003 -0.000005 0.000003 
